<svg xmlns="http://www.w3.org/2000/svg" xmlns:xlink="http://www.w3.org/1999/xlink" version="1.1" x="0px" y="0px" viewBox="0 0 48 60" style="enable-background:new 0 0 48 48;" xml:space="preserve"><g><path d="M34.2,17.1C34.2,7.6,26.5,0,17.1,0S0,7.6,0,17.1c0,9.4,7.6,17.1,17.1,17.1S34.2,26.5,34.2,17.1z M17.1,29.5   c-6.9,0-12.5-5.6-12.5-12.5c0-6.9,5.6-12.5,12.5-12.5c6.9,0,12.5,5.6,12.5,12.5C29.5,24,24,29.5,17.1,29.5z"/><path d="M34,26.6c-1.7,3-4.3,5.7-7.4,7.4l9.8,9.8l7.4-7.4L34,26.6z"/><path d="M46.5,39.1l-1.2-1.2l-7.4,7.4l1.2,1.2c2,2,5.4,2,7.4,0C48.5,44.4,48.5,41.1,46.5,39.1z"/><path d="M23,19.2l-3.9-6.6c1-1.7-0.2-3.8-2.1-3.8c-1.9,0-3.1,2.1-2.1,3.8l-3.9,6.6c-1.5-0.2-2.7,1-2.7,2.4c0,1.4,1.1,2.5,2.5,2.5   c1,0,1.9-0.6,2.3-1.5h7.9c0.4,0.9,1.3,1.5,2.3,1.5c1.4,0,2.5-1.1,2.5-2.5C25.8,20.3,24.6,19.1,23,19.2z M12.8,20.2l3.8-6.5   c0.3,0.1,0.6,0.1,0.9,0l3.8,6.5c-0.1,0.1-0.2,0.3-0.3,0.4h-7.9C13,20.5,12.9,20.4,12.8,20.2z"/></g></svg>
